{
	"asset":{
		"generator":"Khronos glTF Blender I/O v3.5.30",
		"version":"2.0"
	},
	"scene":0,
	"scenes":[
		{
			"name":"Scene",
			"nodes":[
				0
			]
		}
	],
	"nodes":[
		{
			"mesh":0,
			"name":"NurbsPath.008",
			"scale":[
				-1.6535052061080933,
				-1.8117157220840454,
				-0.6749897599220276
			],
			"translation":[
				-1.1164522171020508,
				2.206645965576172,
				-2.7729458808898926
			]
		}
	],
	"materials":[
		{
			"doubleSided":true,
			"name":"Material.005",
			"pbrMetallicRoughness":{
				"baseColorFactor":[
					0.8000000715255737,
					0.19169287383556366,
					0.13682202994823456,
					1
				],
				"metallicFactor":0,
				"roughnessFactor":0.5
			}
		}
	],
	"meshes":[
		{
			"name":"NurbsPath.009",
			"primitives":[
				{
					"attributes":{
						"POSITION":0,
						"TEXCOORD_0":1,
						"NORMAL":2
					},
					"indices":3,
					"material":0
				}
			]
		}
	],
	"accessors":[
		{
			"bufferView":0,
			"componentType":5126,
			"count":15996,
			"max":[
				-0.5222839117050171,
				6.273672103881836,
				-0.17735078930854797
			],
			"min":[
				-2.3507161140441895,
				-0.004114922136068344,
				-2.1321563720703125
			],
			"type":"VEC3"
		},
		{
			"bufferView":1,
			"componentType":5126,
			"count":15996,
			"type":"VEC2"
		},
		{
			"bufferView":2,
			"componentType":5126,
			"count":15996,
			"type":"VEC3"
		},
		{
			"bufferView":3,
			"componentType":5123,
			"count":93300,
			"type":"SCALAR"
		}
	],
	"bufferViews":[
		{
			"buffer":0,
			"byteLength":191952,
			"byteOffset":0,
			"target":34962
		},
		{
			"buffer":0,
			"byteLength":127968,
			"byteOffset":191952,
			"target":34962
		},
		{
			"buffer":0,
			"byteLength":191952,
			"byteOffset":319920,
			"target":34962
		},
		{
			"buffer":0,
			"byteLength":186600,
			"byteOffset":511872,
			"target":34963
		}
	],
	"buffers":[
		{
			"byteLength":698472,
			"uri":"untitled2.bin"
		}
	]
}
